<svg xmlns="http://www.w3.org/2000/svg" viewBox="0 0 400.497 400.497" width="512" height="512"><path d="M374.772 222.56l-76.72-86.24 77.52-85.44a8 8 0 00-5.92-13.36h-264.88a8 8 0 00-8 8V228.8a8 8 0 008 8h265.04a8 8 0 004.96-14.24zM81.732 369.44v-340C81.688 13.199 68.533.044 52.292 0c-16.303 0-29.52 13.217-29.52 29.52v339.92c-.848 16.281 11.662 30.168 27.944 31.016s30.168-11.662 31.016-27.944a29.697 29.697 0 000-3.072z" data-original="#000000" class="active-path" data-old_color="#000000" fill="#FFF"/></svg>