<svg xmlns="http://www.w3.org/2000/svg" width="512" height="512" viewBox="0 0 330.296 330.297"><path d="M292.5 201.027c-.582.938-1.245 1.803-1.934 2.651-5.023 6.255-12.637 10.336-21.274 10.336-8.575 0-16.13-4.019-21.15-10.19-.696-.85-1.375-1.699-1.962-2.631-.536-.839-.992-1.729-1.432-2.631-1.771-3.624-2.848-7.643-2.848-11.951 0-15.125 12.265-27.395 27.397-27.395 15.128 0 27.393 12.27 27.393 27.395 0 4.236-1.038 8.192-2.752 11.766a26.159 26.159 0 01-1.438 2.65zm-205.054 4.63c-4.981 5.137-11.925 8.347-19.646 8.347-8.445 0-15.907-3.904-20.936-9.91-.787-.943-1.543-1.891-2.2-2.932a27.286 27.286 0 01-1.569-2.889c-1.683-3.553-2.692-7.478-2.692-11.662 0-15.13 12.262-27.399 27.397-27.399 15.131.005 27.397 12.274 27.397 27.399 0 5.018-1.45 9.663-3.801 13.712a28.824 28.824 0 01-1.745 2.662c-.703.927-1.407 1.843-2.205 2.672z" data-original="#000000" class="active-path" data-old_color="#000000" fill="#FFF"/><path d="M1.965 127.848l28.724 8.839s3.133 2.296 6.7 4.857a482.416 482.416 0 0010.123-3.795c32.622-12.637 74.575-21.466 102.03-21.466 3.443 0 6.659.146 9.538.425 15.324 1.479 36.412 9.116 62.686 22.678 1.083.564 1.797.935 2.066 1.051 7.589 3.25 17.064 4.831 28.975 4.831 9.028 0 17.89-.919 25.005-1.654 3.936-.409 7.387-.764 10.134-.904a49.99 49.99 0 012.327-.062c5.582 0 7.221 1.417 8.446 4.2.531 1.209 1.131 2.576 6.475 4.078 14.183 3.977 24.032 15.089 24.438 15.555l.657.745v22.66l-1.426.734c-1.849.969-2.524 1.663-2.708 1.834 2.237 1.982 5.036 4.96 3.866 8.057-1.173 3.086-5.207 3.169-5.665 3.169h-27.227a30.95 30.95 0 001.468-2.651 29.41 29.41 0 001.167-2.65 32.378 32.378 0 002.227-11.766c0-18.024-14.667-32.697-32.7-32.697-18.028 0-32.7 14.667-32.7 32.697a32.473 32.473 0 003.511 14.65c.456.906.953 1.781 1.483 2.636l-143.669 1.605s-1.32.036-3.531.072a30.261 30.261 0 001.729-2.683c.502-.87.957-1.766 1.382-2.683a32.366 32.366 0 003.004-13.598c0-18.024-14.67-32.697-32.7-32.697s-32.699 14.667-32.699 32.697c0 3.651.626 7.151 1.734 10.43.342 1.035.74 2.035 1.186 3.014.461 1.02.974 2.009 1.538 2.972-5.298-.983-8.891-2.247-10.708-3.78-8.84-7.482-18.766-43.273-20.024-47.913l-.119-.621 3.558-.621 1.568-.508c-.326-.88-1.004-1.214-.698-1.229.543 0 1.444-.07 2.895-.334-4.07-5.15-10.978-8.469-14.064-10.012-4.423-2.208-.002-10.162-.002-10.162z" data-original="#000000" class="active-path" data-old_color="#000000" fill="#FFF"/></svg>