<?xml version="1.0"?>
<svg xmlns="http://www.w3.org/2000/svg" xmlns:xlink="http://www.w3.org/1999/xlink" version="1.1" id="Capa_1" x="0px" y="0px" viewBox="0 0 400.497 400.497" style="enable-background:new 0 0 400.497 400.497;" xml:space="preserve" width="512px" height="512px"><g><g>
	<g>
		<path d="M374.772,222.56L374.772,222.56l-76.72-86.24l77.52-85.44c2.96-3.28,2.701-8.339-0.579-11.299    c-1.465-1.322-3.367-2.056-5.341-2.061h-264.88c-4.418,0-8,3.582-8,8V228.8c0,4.418,3.582,8,8,8h265.04    c4.418-0.025,7.979-3.628,7.954-8.046C377.752,226.344,376.652,224.068,374.772,222.56z" data-original="#000000" class="active-path" data-old_color="#000000" fill="#FFFFFF"/>
	</g>
</g><g>
	<g>
		<path d="M81.732,369.44v-340C81.688,13.199,68.533,0.044,52.292,0c-16.303,0-29.52,13.217-29.52,29.52v339.92    c-0.848,16.281,11.662,30.168,27.944,31.016s30.168-11.662,31.016-27.944C81.785,371.489,81.785,370.463,81.732,369.44z" data-original="#000000" class="active-path" data-old_color="#000000" fill="#FFFFFF"/>
	</g>
</g></g> </svg>
